<?xml version="1.0" encoding="iso-8859-1"?><!-- Generator: Adobe Illustrator 21.1.0, SVG Export Plug-In . SVG Version: 6.00 Build 0)  --><svg xmlns="http://www.w3.org/2000/svg" xmlns:xlink="http://www.w3.org/1999/xlink" viewBox="0 0 48 48" width="96px" height="96px"><path style="fill:#BF360C;" d="M39,5H21C10.507,5,2,13.507,2,24s8.507,19,19,19c7.808,0,14.512-4.712,17.434-11.446l0,0.001  l0.005-0.013C39.75,29,44.1,18.73,45.608,14.316C45.769,13.843,46,13.062,46,12C46,8.134,42.866,5,39,5z"/><circle style="fill:#FFFFFF;" cx="21" cy="24" r="15"/><path style="fill:#BF360C;" d="M27,32c-0.426,0.48-1.023,0.009-1.375,0.25c-2.375,1.625-3.375-0.058-3.375-0.058  c-1.242-0.858-1.875-1.192-2.524-1.191c-0.584,0.001-1.129,0.312-1.226,0.874C18.377,32.587,18.25,33,17.75,33  C16.809,33,17,33.375,17,34c0,0.801-0.475,1-0.728,1c-3.786,0-2.414-1.726-3.466-2.094C12,32.625,12,31.875,11.796,31.675  C10.242,30.15,11,29.5,10.66,29.212c-0.414-0.351-0.796-0.678-0.735-1.087c0.075-0.5,0.061-0.935-0.294-1.254  C9.146,26.433,8,26.625,8,26.327c0-1-1-0.83-1-1.714c0-0.884,0.735-1.601,1.641-1.601s1.435,0.655,1.767,1.478  c0.233,0.576,1.585,1.909,2.342,0.308c0.209-0.442,0.125-1.548,2.5,0.077c0.582,0.398,1.161-1.03,0.426-2.125  c-1.426-2.125-0.099-2.045,0.074-2.875c0.225-1.081,0.813-1.933,1.551-3.125c0.127-0.204-0.641-1.987-0.126-2.052  c1.574-0.198,1.864-0.167,2.32-0.511C20,13.806,19.415,12.324,20,12.094C20.875,11.75,20.857,13,22.75,13  c0.729,0,0.902-0.136,1.625-0.136c0.385,0,0.89-0.915,1.262-0.862c0.344,0.049,0.863,0.248,1.113,1.623  c0.158,0.87,1.57-0.162,2,0.125c0.75,0.5-0.8,0.942,0.254,2c0.871,0.875,0.822-0.75,1.621-0.75C31.726,15,33,19.125,33,22.685  c0,3.315-0.631,3.941-1.136,5.911C31.703,29.225,31,30,29.875,29.75c-1.226-0.273-1.625,0.625-1.125,1  C28.971,30.916,29,31.224,29,31.5S28.776,32,28.5,32S28,31.776,28,31.5C28,31.5,28,30.875,27,32z"/><g><g><path style="fill:#FFFFFF;" d="M39.475,7.778c1.403,0,2.416,0.85,2.416,2.026c0,0.757-0.389,1.382-1.594,2.563l-1.486,1.479v0.083    H42V15h-4.931v-0.874l2.367-2.402c0.969-0.977,1.211-1.343,1.211-1.841c0-0.62-0.512-1.069-1.211-1.069    c-0.743,0-1.245,0.483-1.245,1.201v0.02H37v-0.02C37,8.696,38.019,7.778,39.475,7.778z"/></g><path style="fill:#FFFFFF;" d="M28.45,25.062l-0.55-0.056c-0.459,0-0.734-0.412-0.715-0.881l-0.018-6.251   c0-1.346-0.879-1.875-1.466-1.875h-0.368c-1.834,0-2.659,0.713-3.21,1.406c-0.972,1.2-3.081,5.025-3.98,7.257   c-0.422,1.05,0.128,2.231,1.192,2.531l3.998,0.656l0.569,2.438C23.993,30.7,24.378,31,24.8,31h1.431   c0.495,0,0.917-0.413,0.917-0.938l0.018-2.344l1.1-0.469C28.78,27.025,29,26.912,29,26.499v-0.874   C29,25.306,28.762,25.062,28.45,25.062z M24.527,24.671h-2.758c-0.292-0.11-0.42-0.44-0.274-0.696   c0.168-0.526,0.853-1.671,1.571-2.29c0.255-0.219,0.493,0.202,0.658,0.495c0.457,0.843,0.722,1.044,1.297,1.759   C25.257,24.232,24.948,24.671,24.527,24.671z"/></g></svg>